<svg width="30" height="31" viewBox="0 0 30 31" fill="none" xmlns="http://www.w3.org/2000/svg">
<mask id="mask0_245748_5926" style="mask-type:alpha" maskUnits="userSpaceOnUse" x="0" y="0" width="30" height="31">
<rect y="0.98288" width="30" height="30" fill="#D9D9D9"/>
</mask>
<g mask="url(#mask0_245748_5926)">
<path d="M15 23.4829C13.8333 23.4829 12.7188 23.6652 11.6563 24.0298C10.5938 24.3943 9.625 24.9412 8.75 25.6704V25.9829H21.25V25.6704C20.375 24.9412 19.4062 24.3943 18.3438 24.0298C17.2812 23.6652 16.1667 23.4829 15 23.4829ZM6.25 24.5454C7.375 23.4412 8.68229 22.5714 10.1719 21.936C11.6615 21.3006 13.2708 20.9829 15 20.9829C16.7292 20.9829 18.3385 21.3006 19.8281 21.936C21.3177 22.5714 22.625 23.4412 23.75 24.5454V8.48288H6.25V24.5454ZM15 18.4829C13.7917 18.4829 12.7604 18.0558 11.9062 17.2016C11.0521 16.3475 10.625 15.3162 10.625 14.1079C10.625 12.8995 11.0521 11.8683 11.9062 11.0141C12.7604 10.16 13.7917 9.73288 15 9.73288C16.2083 9.73288 17.2396 10.16 18.0938 11.0141C18.9479 11.8683 19.375 12.8995 19.375 14.1079C19.375 15.3162 18.9479 16.3475 18.0938 17.2016C17.2396 18.0558 16.2083 18.4829 15 18.4829ZM15 15.9829C15.5208 15.9829 15.9635 15.8006 16.3281 15.436C16.6927 15.0714 16.875 14.6287 16.875 14.1079C16.875 13.587 16.6927 13.1443 16.3281 12.7798C15.9635 12.4152 15.5208 12.2329 15 12.2329C14.4792 12.2329 14.0365 12.4152 13.6719 12.7798C13.3073 13.1443 13.125 13.587 13.125 14.1079C13.125 14.6287 13.3073 15.0714 13.6719 15.436C14.0365 15.8006 14.4792 15.9829 15 15.9829ZM6.25 28.4829C5.5625 28.4829 4.97396 28.2381 4.48438 27.7485C3.99479 27.2589 3.75 26.6704 3.75 25.9829V8.48288C3.75 7.79538 3.99479 7.20684 4.48438 6.71725C4.97396 6.22767 5.5625 5.98288 6.25 5.98288H7.5V3.48288H10V5.98288H20V3.48288H22.5V5.98288H23.75C24.4375 5.98288 25.026 6.22767 25.5156 6.71725C26.0052 7.20684 26.25 7.79538 26.25 8.48288V25.9829C26.25 26.6704 26.0052 27.2589 25.5156 27.7485C25.026 28.2381 24.4375 28.4829 23.75 28.4829H6.25Z" fill="#CDCDCD"/>
</g>
</svg>
