<svg width="193" height="16" viewBox="0 0 193 16" fill="none" xmlns="http://www.w3.org/2000/svg">
<path d="M0.465909 2.01705V0.454545H11.375V2.01705H6.80114V15H5.03977V2.01705H0.465909ZM15.592 15.2557C14.9007 15.2557 14.2733 15.1255 13.7099 14.8651C13.1464 14.5999 12.699 14.2188 12.3675 13.7216C12.0361 13.2197 11.8704 12.6136 11.8704 11.9034C11.8704 11.2784 11.9935 10.7718 12.2397 10.3835C12.4859 9.99053 12.815 9.68276 13.2269 9.46023C13.6388 9.23769 14.0934 9.07197 14.5906 8.96307C15.0924 8.84943 15.5967 8.75947 16.1033 8.69318C16.7662 8.60795 17.3036 8.54403 17.7156 8.50142C18.1322 8.45407 18.4353 8.37595 18.6246 8.26705C18.8188 8.15814 18.9158 7.96875 18.9158 7.69886V7.64205C18.9158 6.94129 18.7241 6.39678 18.3406 6.00852C17.9618 5.62027 17.3865 5.42614 16.6147 5.42614C15.8145 5.42614 15.1871 5.60133 14.7326 5.9517C14.2781 6.30208 13.9585 6.67614 13.7738 7.07386L12.1829 6.50568C12.467 5.8428 12.8458 5.3267 13.3192 4.95739C13.7975 4.58333 14.3183 4.32292 14.8817 4.17614C15.4499 4.02462 16.0086 3.94886 16.5579 3.94886C16.9083 3.94886 17.3107 3.99148 17.7653 4.0767C18.2246 4.1572 18.6673 4.32528 19.0934 4.58097C19.5243 4.83665 19.8817 5.22254 20.1658 5.73864C20.4499 6.25473 20.592 6.94602 20.592 7.8125V15H18.9158V13.5227H18.8306C18.717 13.7595 18.5276 14.0128 18.2624 14.2827C17.9973 14.5526 17.6445 14.7822 17.2042 14.9716C16.7638 15.161 16.2264 15.2557 15.592 15.2557ZM15.8477 13.75C16.5105 13.75 17.0692 13.6198 17.5238 13.3594C17.9831 13.099 18.3287 12.7628 18.5607 12.3509C18.7975 11.9389 18.9158 11.5057 18.9158 11.0511V9.51705C18.8448 9.60227 18.6886 9.6804 18.4471 9.75142C18.2103 9.81771 17.9357 9.87689 17.6232 9.92898C17.3155 9.97633 17.0148 10.0189 16.7212 10.0568C16.4324 10.09 16.198 10.1184 16.0181 10.142C15.5825 10.1989 15.1753 10.2912 14.7965 10.419C14.4225 10.5421 14.1194 10.7292 13.8874 10.9801C13.6602 11.2263 13.5465 11.5625 13.5465 11.9886C13.5465 12.571 13.762 13.0114 14.1928 13.3097C14.6284 13.6032 15.18 13.75 15.8477 13.75ZM31.3786 6.53409L29.8729 6.96023C29.7782 6.70928 29.6385 6.46544 29.4538 6.22869C29.2739 5.98722 29.0277 5.78835 28.7152 5.6321C28.4027 5.47585 28.0026 5.39773 27.5149 5.39773C26.8473 5.39773 26.291 5.55161 25.8459 5.85938C25.4055 6.16241 25.1854 6.5483 25.1854 7.01705C25.1854 7.43371 25.3369 7.76278 25.6399 8.00426C25.9429 8.24574 26.4164 8.44697 27.0604 8.60795L28.6797 9.00568C29.6551 9.24242 30.3819 9.60464 30.8601 10.0923C31.3383 10.5753 31.5774 11.1979 31.5774 11.9602C31.5774 12.5852 31.3975 13.1439 31.0376 13.6364C30.6825 14.1288 30.1854 14.517 29.5462 14.8011C28.907 15.0852 28.1636 15.2273 27.3161 15.2273C26.2034 15.2273 25.2824 14.9858 24.5533 14.5028C23.8241 14.0199 23.3625 13.3144 23.1683 12.3864L24.7592 11.9886C24.9107 12.5758 25.1972 13.0161 25.6186 13.3097C26.0447 13.6032 26.6011 13.75 27.2876 13.75C28.0689 13.75 28.6892 13.5843 29.1484 13.2528C29.6125 12.9167 29.8445 12.5142 29.8445 12.0455C29.8445 11.6667 29.7119 11.3494 29.4467 11.0938C29.1816 10.8333 28.7744 10.6392 28.2251 10.5114L26.407 10.0852C25.4079 9.84848 24.674 9.48153 24.2053 8.98438C23.7412 8.48248 23.5092 7.85511 23.5092 7.10227C23.5092 6.48674 23.6821 5.94223 24.0277 5.46875C24.3781 4.99527 24.8539 4.62358 25.4553 4.35369C26.0613 4.08381 26.7479 3.94886 27.5149 3.94886C28.5945 3.94886 29.442 4.18561 30.0575 4.65909C30.6778 5.13258 31.1181 5.75758 31.3786 6.53409ZM35.663 11.0227L35.6346 8.94886H35.9755L40.7482 4.09091H42.8221L37.7369 9.23295H37.5948L35.663 11.0227ZM34.1005 15V0.454545H35.7766V15H34.1005ZM41.0323 15L36.771 9.60227L37.9641 8.4375L43.163 15H41.0323ZM53.8146 15.2557C53.1233 15.2557 52.496 15.1255 51.9325 14.8651C51.3691 14.5999 50.9216 14.2188 50.5902 13.7216C50.2588 13.2197 50.093 12.6136 50.093 11.9034C50.093 11.2784 50.2161 10.7718 50.4624 10.3835C50.7086 9.99053 51.0376 9.68276 51.4496 9.46023C51.8615 9.23769 52.3161 9.07197 52.8132 8.96307C53.3151 8.84943 53.8194 8.75947 54.326 8.69318C54.9889 8.60795 55.5263 8.54403 55.9382 8.50142C56.3549 8.45407 56.6579 8.37595 56.8473 8.26705C57.0414 8.15814 57.1385 7.96875 57.1385 7.69886V7.64205C57.1385 6.94129 56.9467 6.39678 56.5632 6.00852C56.1844 5.62027 55.6091 5.42614 54.8374 5.42614C54.0372 5.42614 53.4098 5.60133 52.9553 5.9517C52.5007 6.30208 52.1811 6.67614 51.9964 7.07386L50.4055 6.50568C50.6896 5.8428 51.0684 5.3267 51.5419 4.95739C52.0201 4.58333 52.541 4.32292 53.1044 4.17614C53.6726 4.02462 54.2313 3.94886 54.7805 3.94886C55.1309 3.94886 55.5334 3.99148 55.9879 4.0767C56.4472 4.1572 56.8899 4.32528 57.3161 4.58097C57.7469 4.83665 58.1044 5.22254 58.3885 5.73864C58.6726 6.25473 58.8146 6.94602 58.8146 7.8125V15H57.1385V13.5227H57.0533C56.9396 13.7595 56.7502 14.0128 56.4851 14.2827C56.2199 14.5526 55.8672 14.7822 55.4268 14.9716C54.9865 15.161 54.4491 15.2557 53.8146 15.2557ZM54.0703 13.75C54.7332 13.75 55.2919 13.6198 55.7464 13.3594C56.2057 13.099 56.5514 12.7628 56.7834 12.3509C57.0201 11.9389 57.1385 11.5057 57.1385 11.0511V9.51705C57.0675 9.60227 56.9112 9.6804 56.6697 9.75142C56.433 9.81771 56.1584 9.87689 55.8459 9.92898C55.5381 9.97633 55.2375 10.0189 54.9439 10.0568C54.6551 10.09 54.4207 10.1184 54.2408 10.142C53.8052 10.1989 53.398 10.2912 53.0192 10.419C52.6451 10.5421 52.3421 10.7292 52.1101 10.9801C51.8828 11.2263 51.7692 11.5625 51.7692 11.9886C51.7692 12.571 51.9846 13.0114 52.4155 13.3097C52.8511 13.6032 53.4027 13.75 54.0703 13.75ZM65.9933 15.2273C65.0842 15.2273 64.2816 14.9976 63.5856 14.5384C62.8896 14.0743 62.3451 13.4209 61.9521 12.5781C61.5591 11.7306 61.3626 10.7292 61.3626 9.57386C61.3626 8.42803 61.5591 7.43371 61.9521 6.59091C62.3451 5.74811 62.8919 5.09706 63.5927 4.63778C64.2934 4.1785 65.1031 3.94886 66.0217 3.94886C66.7319 3.94886 67.293 4.06723 67.7049 4.30398C68.1216 4.53598 68.4388 4.80114 68.6566 5.09943C68.8791 5.39299 69.052 5.63447 69.1751 5.82386H69.3171V0.454545H70.9933V15H69.3739V13.3239H69.1751C69.052 13.5227 68.8768 13.7737 68.6495 14.0767C68.4222 14.375 68.0979 14.6425 67.6765 14.8793C67.2551 15.1113 66.694 15.2273 65.9933 15.2273ZM66.2205 13.7216C66.8929 13.7216 67.4611 13.5464 67.9251 13.196C68.3891 12.8409 68.7418 12.3509 68.9833 11.7259C69.2248 11.0961 69.3455 10.3693 69.3455 9.54545C69.3455 8.73106 69.2272 8.01847 68.9904 7.40767C68.7537 6.79214 68.4033 6.31392 67.9393 5.97301C67.4753 5.62737 66.9023 5.45455 66.2205 5.45455C65.5103 5.45455 64.9184 5.63684 64.445 6.00142C63.9762 6.36127 63.6235 6.85133 63.3867 7.47159C63.1547 8.08712 63.0387 8.77841 63.0387 9.54545C63.0387 10.322 63.1571 11.0275 63.3938 11.6619C63.6353 12.2917 63.9904 12.7936 64.4592 13.1676C64.9326 13.5369 65.5198 13.7216 66.2205 13.7216ZM78.4151 15.2273C77.506 15.2273 76.7035 14.9976 76.0075 14.5384C75.3114 14.0743 74.7669 13.4209 74.3739 12.5781C73.9809 11.7306 73.7844 10.7292 73.7844 9.57386C73.7844 8.42803 73.9809 7.43371 74.3739 6.59091C74.7669 5.74811 75.3138 5.09706 76.0146 4.63778C76.7153 4.1785 77.525 3.94886 78.4435 3.94886C79.1538 3.94886 79.7148 4.06723 80.1268 4.30398C80.5434 4.53598 80.8607 4.80114 81.0785 5.09943C81.301 5.39299 81.4738 5.63447 81.5969 5.82386H81.739V0.454545H83.4151V15H81.7958V13.3239H81.5969C81.4738 13.5227 81.2987 13.7737 81.0714 14.0767C80.8441 14.375 80.5198 14.6425 80.0984 14.8793C79.677 15.1113 79.1159 15.2273 78.4151 15.2273ZM78.6424 13.7216C79.3147 13.7216 79.8829 13.5464 80.3469 13.196C80.811 12.8409 81.1637 12.3509 81.4052 11.7259C81.6467 11.0961 81.7674 10.3693 81.7674 9.54545C81.7674 8.73106 81.649 8.01847 81.4123 7.40767C81.1755 6.79214 80.8252 6.31392 80.3612 5.97301C79.8971 5.62737 79.3242 5.45455 78.6424 5.45455C77.9322 5.45455 77.3403 5.63684 76.8668 6.00142C76.3981 6.36127 76.0453 6.85133 75.8086 7.47159C75.5766 8.08712 75.4606 8.77841 75.4606 9.54545C75.4606 10.322 75.579 11.0275 75.8157 11.6619C76.0572 12.2917 76.4123 12.7936 76.881 13.1676C77.3545 13.5369 77.9416 13.7216 78.6424 13.7216ZM91.2915 15.2273C90.2404 15.2273 89.3337 14.9953 88.5714 14.5312C87.8138 14.0625 87.229 13.4091 86.8171 12.571C86.4099 11.7282 86.2063 10.7481 86.2063 9.63068C86.2063 8.51326 86.4099 7.52841 86.8171 6.67614C87.229 5.81913 87.802 5.15152 88.5359 4.6733C89.2745 4.19034 90.1362 3.94886 91.1211 3.94886C91.6893 3.94886 92.2504 4.04356 92.8043 4.23295C93.3583 4.42235 93.8626 4.73011 94.3171 5.15625C94.7717 5.57765 95.1339 6.13636 95.4038 6.83239C95.6737 7.52841 95.8086 8.38542 95.8086 9.40341V10.1136H87.3995V8.66477H94.104C94.104 8.04924 93.9809 7.5 93.7347 7.01705C93.4933 6.53409 93.1476 6.15294 92.6978 5.87358C92.2527 5.59422 91.7272 5.45455 91.1211 5.45455C90.4535 5.45455 89.8758 5.62026 89.3881 5.9517C88.9052 6.27841 88.5335 6.70455 88.2731 7.23011C88.0127 7.75568 87.8825 8.31913 87.8825 8.92045V9.88636C87.8825 10.7102 88.0245 11.4086 88.3086 11.9815C88.5974 12.5497 88.9975 12.983 89.5089 13.2812C90.0202 13.5748 90.6145 13.7216 91.2915 13.7216C91.7319 13.7216 92.1296 13.66 92.4847 13.5369C92.8446 13.4091 93.1547 13.2197 93.4151 12.9688C93.6755 12.7131 93.8768 12.3958 94.0188 12.017L95.6381 12.4716C95.4677 13.0208 95.1812 13.5038 94.7788 13.9205C94.3763 14.3324 93.8791 14.6544 93.2873 14.8864C92.6954 15.1136 92.0302 15.2273 91.2915 15.2273ZM102.478 15.2273C101.569 15.2273 100.766 14.9976 100.07 14.5384C99.3739 14.0743 98.8294 13.4209 98.4364 12.5781C98.0434 11.7306 97.8469 10.7292 97.8469 9.57386C97.8469 8.42803 98.0434 7.43371 98.4364 6.59091C98.8294 5.74811 99.3763 5.09706 100.077 4.63778C100.778 4.1785 101.587 3.94886 102.506 3.94886C103.216 3.94886 103.777 4.06723 104.189 4.30398C104.606 4.53598 104.923 4.80114 105.141 5.09943C105.364 5.39299 105.536 5.63447 105.659 5.82386H105.801V0.454545H107.478V15H105.858V13.3239H105.659C105.536 13.5227 105.361 13.7737 105.134 14.0767C104.907 14.375 104.582 14.6425 104.161 14.8793C103.739 15.1113 103.178 15.2273 102.478 15.2273ZM102.705 13.7216C103.377 13.7216 103.945 13.5464 104.409 13.196C104.873 12.8409 105.226 12.3509 105.468 11.7259C105.709 11.0961 105.83 10.3693 105.83 9.54545C105.83 8.73106 105.712 8.01847 105.475 7.40767C105.238 6.79214 104.888 6.31392 104.424 5.97301C103.96 5.62737 103.387 5.45455 102.705 5.45455C101.995 5.45455 101.403 5.63684 100.929 6.00142C100.461 6.36127 100.108 6.85133 99.8711 7.47159C99.6391 8.08712 99.5231 8.77841 99.5231 9.54545C99.5231 10.322 99.6415 11.0275 99.8782 11.6619C100.12 12.2917 100.475 12.7936 100.944 13.1676C101.417 13.5369 102.004 13.7216 102.705 13.7216ZM121.15 4.09091V5.51136H115.496V4.09091H121.15ZM117.144 1.47727H118.82V11.875C118.82 12.3485 118.889 12.7036 119.026 12.9403C119.168 13.1723 119.348 13.3286 119.566 13.4091C119.788 13.4848 120.023 13.5227 120.269 13.5227C120.453 13.5227 120.605 13.5133 120.723 13.4943C120.842 13.4706 120.936 13.4517 121.007 13.4375L121.348 14.9432C121.235 14.9858 121.076 15.0284 120.873 15.071C120.669 15.1184 120.411 15.142 120.098 15.142C119.625 15.142 119.161 15.0402 118.706 14.8366C118.257 14.633 117.882 14.3229 117.584 13.9062C117.291 13.4896 117.144 12.964 117.144 12.3295V1.47727ZM127.985 15.2273C127.001 15.2273 126.136 14.9929 125.393 14.5241C124.654 14.0554 124.077 13.3996 123.66 12.5568C123.248 11.714 123.042 10.7292 123.042 9.60227C123.042 8.46591 123.248 7.47396 123.66 6.62642C124.077 5.77888 124.654 5.12074 125.393 4.65199C126.136 4.18324 127.001 3.94886 127.985 3.94886C128.97 3.94886 129.832 4.18324 130.571 4.65199C131.314 5.12074 131.892 5.77888 132.304 6.62642C132.72 7.47396 132.929 8.46591 132.929 9.60227C132.929 10.7292 132.72 11.714 132.304 12.5568C131.892 13.3996 131.314 14.0554 130.571 14.5241C129.832 14.9929 128.97 15.2273 127.985 15.2273ZM127.985 13.7216C128.734 13.7216 129.349 13.5298 129.832 13.1463C130.315 12.7628 130.672 12.2585 130.904 11.6335C131.136 11.0085 131.252 10.3314 131.252 9.60227C131.252 8.87311 131.136 8.19366 130.904 7.56392C130.672 6.93419 130.315 6.42519 129.832 6.03693C129.349 5.64867 128.734 5.45455 127.985 5.45455C127.237 5.45455 126.622 5.64867 126.139 6.03693C125.656 6.42519 125.298 6.93419 125.066 7.56392C124.834 8.19366 124.718 8.87311 124.718 9.60227C124.718 10.3314 124.834 11.0085 125.066 11.6335C125.298 12.2585 125.656 12.7628 126.139 13.1463C126.622 13.5298 127.237 13.7216 127.985 13.7216ZM141.339 15V0.454545H143.016V5.82386H143.158C143.281 5.63447 143.451 5.39299 143.669 5.09943C143.892 4.80114 144.209 4.53598 144.621 4.30398C145.037 4.06723 145.601 3.94886 146.311 3.94886C147.23 3.94886 148.039 4.1785 148.74 4.63778C149.441 5.09706 149.988 5.74811 150.381 6.59091C150.774 7.43371 150.97 8.42803 150.97 9.57386C150.97 10.7292 150.774 11.7306 150.381 12.5781C149.988 13.4209 149.443 14.0743 148.747 14.5384C148.051 14.9976 147.249 15.2273 146.339 15.2273C145.639 15.2273 145.078 15.1113 144.656 14.8793C144.235 14.6425 143.911 14.375 143.683 14.0767C143.456 13.7737 143.281 13.5227 143.158 13.3239H142.959V15H141.339ZM142.987 9.54545C142.987 10.3693 143.108 11.0961 143.349 11.7259C143.591 12.3509 143.944 12.8409 144.408 13.196C144.872 13.5464 145.44 13.7216 146.112 13.7216C146.813 13.7216 147.398 13.5369 147.866 13.1676C148.34 12.7936 148.695 12.2917 148.932 11.6619C149.173 11.0275 149.294 10.322 149.294 9.54545C149.294 8.77841 149.176 8.08712 148.939 7.47159C148.707 6.85133 148.354 6.36127 147.881 6.00142C147.412 5.63684 146.822 5.45455 146.112 5.45455C145.43 5.45455 144.857 5.62737 144.393 5.97301C143.929 6.31392 143.579 6.79214 143.342 7.40767C143.106 8.01847 142.987 8.73106 142.987 9.54545ZM157.966 15.2273C156.981 15.2273 156.117 14.9929 155.374 14.5241C154.635 14.0554 154.057 13.3996 153.641 12.5568C153.229 11.714 153.023 10.7292 153.023 9.60227C153.023 8.46591 153.229 7.47396 153.641 6.62642C154.057 5.77888 154.635 5.12074 155.374 4.65199C156.117 4.18324 156.981 3.94886 157.966 3.94886C158.951 3.94886 159.813 4.18324 160.551 4.65199C161.295 5.12074 161.872 5.77888 162.284 6.62642C162.701 7.47396 162.909 8.46591 162.909 9.60227C162.909 10.7292 162.701 11.714 162.284 12.5568C161.872 13.3996 161.295 14.0554 160.551 14.5241C159.813 14.9929 158.951 15.2273 157.966 15.2273ZM157.966 13.7216C158.714 13.7216 159.33 13.5298 159.812 13.1463C160.295 12.7628 160.653 12.2585 160.885 11.6335C161.117 11.0085 161.233 10.3314 161.233 9.60227C161.233 8.87311 161.117 8.19366 160.885 7.56392C160.653 6.93419 160.295 6.42519 159.812 6.03693C159.33 5.64867 158.714 5.45455 157.966 5.45455C157.218 5.45455 156.602 5.64867 156.119 6.03693C155.636 6.42519 155.279 6.93419 155.047 7.56392C154.815 8.19366 154.699 8.87311 154.699 9.60227C154.699 10.3314 154.815 11.0085 155.047 11.6335C155.279 12.2585 155.636 12.7628 156.119 13.1463C156.602 13.5298 157.218 13.7216 157.966 13.7216ZM168.678 15.2557C167.987 15.2557 167.359 15.1255 166.796 14.8651C166.232 14.5999 165.785 14.2188 165.453 13.7216C165.122 13.2197 164.956 12.6136 164.956 11.9034C164.956 11.2784 165.079 10.7718 165.326 10.3835C165.572 9.99053 165.901 9.68276 166.313 9.46023C166.725 9.23769 167.179 9.07197 167.676 8.96307C168.178 8.84943 168.683 8.75947 169.189 8.69318C169.852 8.60795 170.39 8.54403 170.801 8.50142C171.218 8.45407 171.521 8.37595 171.711 8.26705C171.905 8.15814 172.002 7.96875 172.002 7.69886V7.64205C172.002 6.94129 171.81 6.39678 171.426 6.00852C171.048 5.62027 170.472 5.42614 169.701 5.42614C168.9 5.42614 168.273 5.60133 167.819 5.9517C167.364 6.30208 167.044 6.67614 166.86 7.07386L165.269 6.50568C165.553 5.8428 165.932 5.3267 166.405 4.95739C166.883 4.58333 167.404 4.32292 167.968 4.17614C168.536 4.02462 169.095 3.94886 169.644 3.94886C169.994 3.94886 170.397 3.99148 170.851 4.0767C171.31 4.1572 171.753 4.32528 172.179 4.58097C172.61 4.83665 172.968 5.22254 173.252 5.73864C173.536 6.25473 173.678 6.94602 173.678 7.8125V15H172.002V13.5227H171.917C171.803 13.7595 171.614 14.0128 171.348 14.2827C171.083 14.5526 170.73 14.7822 170.29 14.9716C169.85 15.161 169.312 15.2557 168.678 15.2557ZM168.934 13.75C169.596 13.75 170.155 13.6198 170.61 13.3594C171.069 13.099 171.415 12.7628 171.647 12.3509C171.883 11.9389 172.002 11.5057 172.002 11.0511V9.51705C171.931 9.60227 171.775 9.6804 171.533 9.75142C171.296 9.81771 171.022 9.87689 170.709 9.92898C170.401 9.97633 170.101 10.0189 169.807 10.0568C169.518 10.09 169.284 10.1184 169.104 10.142C168.668 10.1989 168.261 10.2912 167.882 10.419C167.508 10.5421 167.205 10.7292 166.973 10.9801C166.746 11.2263 166.632 11.5625 166.632 11.9886C166.632 12.571 166.848 13.0114 167.279 13.3097C167.714 13.6032 168.266 13.75 168.934 13.75ZM176.737 15V4.09091H178.357V5.73864H178.47C178.669 5.19886 179.029 4.76089 179.55 4.42472C180.071 4.08854 180.658 3.92045 181.311 3.92045C181.434 3.92045 181.588 3.92282 181.773 3.92756C181.957 3.93229 182.097 3.93939 182.192 3.94886V5.65341C182.135 5.6392 182.005 5.6179 181.801 5.58949C181.602 5.55634 181.392 5.53977 181.169 5.53977C180.639 5.53977 180.165 5.65104 179.749 5.87358C179.337 6.09138 179.01 6.39441 178.768 6.78267C178.532 7.16619 178.413 7.60417 178.413 8.09659V15H176.737ZM187.966 15.2273C187.057 15.2273 186.254 14.9976 185.558 14.5384C184.862 14.0743 184.318 13.4209 183.925 12.5781C183.532 11.7306 183.335 10.7292 183.335 9.57386C183.335 8.42803 183.532 7.43371 183.925 6.59091C184.318 5.74811 184.865 5.09706 185.565 4.63778C186.266 4.1785 187.076 3.94886 187.994 3.94886C188.705 3.94886 189.266 4.06723 189.678 4.30398C190.094 4.53598 190.411 4.80114 190.629 5.09943C190.852 5.39299 191.025 5.63447 191.148 5.82386H191.29V0.454545H192.966V15H191.347V13.3239H191.148C191.025 13.5227 190.849 13.7737 190.622 14.0767C190.395 14.375 190.071 14.6425 189.649 14.8793C189.228 15.1113 188.667 15.2273 187.966 15.2273ZM188.193 13.7216C188.866 13.7216 189.434 13.5464 189.898 13.196C190.362 12.8409 190.714 12.3509 190.956 11.7259C191.197 11.0961 191.318 10.3693 191.318 9.54545C191.318 8.73106 191.2 8.01847 190.963 7.40767C190.726 6.79214 190.376 6.31392 189.912 5.97301C189.448 5.62737 188.875 5.45455 188.193 5.45455C187.483 5.45455 186.891 5.63684 186.418 6.00142C185.949 6.36127 185.596 6.85133 185.359 7.47159C185.127 8.08712 185.011 8.77841 185.011 9.54545C185.011 10.322 185.13 11.0275 185.366 11.6619C185.608 12.2917 185.963 12.7936 186.432 13.1676C186.905 13.5369 187.492 13.7216 188.193 13.7216Z" fill="white"/>
</svg>
